<svg xmlns="http://www.w3.org/2000/svg" width="96" height="96" viewBox="0 0 96 96">
  <g transform="translate(3, 10) scale(2.25, 2.25) translate(-285, 1)">
    <path d="M321.391 27.6568L315.667 22.7117C312.559 24.2866 308.805 21.4555 306.586 21.4582C305.349 21.4596 303.392 22.9559 301.512 23.0373C300.235 23.0922 298.925 22.4363 297.926 22.7236C296.007 23.2745 293.851 27.1477 291.781 27.6575V19.5251C291.781 19.3165 289.792 17.414 289.268 16.2001C285.656 7.82077 292.894 -1.24514 301.972 0.159299C303.306 0.365896 305.299 1.78494 306.593 1.7599C307.669 1.73903 309.496 0.354071 310.782 0.159995C319.765 -1.19506 326.933 6.3419 324.191 15.2367C323.787 16.5479 321.39 19.6691 321.39 19.9432V27.6582L321.391 27.6568ZM304.291 19.3109C302.413 15.9295 301.204 13.1554 301.816 9.12504C302.029 7.71782 304.22 4.68843 303.693 3.87248C296.174 -0.455622 288.217 8.31604 292.114 15.8558C293.146 17.8508 295.582 18.5909 294.704 21.8186C297.182 18.7328 298.151 20.3974 301.162 20.1567C302.276 20.0677 303.215 19.4952 304.291 19.3109ZM318.887 21.4026C318.106 17.5788 321.874 15.7633 322.208 11.968C322.755 5.74437 313.821 -0.674044 308.922 4.50896C311.337 7.16829 311.892 11.2293 311.097 14.6517C310.702 16.3538 309.518 17.7332 308.881 19.3109C311.03 21.0089 315.694 19.1057 317.057 20.1227C317.703 20.6054 317.34 21.8353 318.887 21.4026H318.887ZM307.189 6.4052C305.699 5.407 304.36 9.69614 304.281 10.7757C304.14 12.7102 304.953 15.2687 306.174 16.8129C307.507 17.1225 308.726 12.5127 308.731 11.5305C308.734 10.8168 307.473 6.5958 307.189 6.4052Z" fill="white"/>
  </g>
</svg>
